<svg xmlns="http://www.w3.org/2000/svg" viewBox="950 450 700 550"><path d="M0 0h-82.845l41.467-71.634 7.546 13.071-26.373 45.492h52.658z" style="fill:#0071bc;fill-opacity:1;fill-rule:nonzero;stroke:none" transform="matrix(1.33333 0 0 -1.33333 1305.91 546.5)"/><path d="M0 0h-139.076l69.538 120.443zm22.64 280.099-66.876.127-7.547-13.071L0 267.028l-69.538-120.443-25.843 45.055-7.547-13.071 25.863-45.022-84.65-146.618H22.64l-84.631 146.585z" style="fill:#000;fill-opacity:1;fill-rule:nonzero;stroke:none" transform="matrix(1.33333 0 0 -1.33333 1411.07 919.965)"/><path d="M0 0h82.845L41.378 71.634l-7.546-13.071 26.373-45.492H7.547Z" style="fill:#0071bc;fill-opacity:1;fill-rule:nonzero;stroke:none" transform="matrix(1.33333 0 0 -1.33333 1254.228 892.74)"/><path d="M0 0h139.076L69.754-120.068l-.113.197-.216-.376zm161.715 13.071H-22.64l84.518-146.389-84.414-146.21 66.875-.127 7.547 13.071-51.783.127 69.322 120.068.113-.196.216.374 25.73-44.858 7.547 13.071-25.749 44.826z" style="fill:#000;fill-opacity:1;fill-rule:nonzero;stroke:none" transform="matrix(1.33333 0 0 -1.33333 1148.93 520.035)"/></svg>