<svg xmlns="http://www.w3.org/2000/svg" viewBox="950 450 700 700"><path d="M0 0h-82.845l41.467-71.634 7.546 13.071-26.373 45.492h52.658z" style="fill:#0071bc;fill-opacity:1;fill-rule:nonzero;stroke:none" transform="matrix(1.33333 0 0 -1.33333 1305.91 546.5)"/><path d="M0 0h-139.076l69.538 120.443zm22.64 280.099-66.876.127-7.547-13.071L0 267.028l-69.538-120.443-25.843 45.055-7.547-13.071 25.863-45.022-84.65-146.618H22.64l-84.631 146.585z" style="fill:#000;fill-opacity:1;fill-rule:nonzero;stroke:none" transform="matrix(1.33333 0 0 -1.33333 1411.07 919.965)"/><path d="M0 0h82.845L41.378 71.634l-7.546-13.071 26.373-45.492H7.547Z" style="fill:#0071bc;fill-opacity:1;fill-rule:nonzero;stroke:none" transform="matrix(1.33333 0 0 -1.33333 1254.228 892.74)"/><path d="M0 0h139.076L69.754-120.068l-.113.197-.216-.376zm161.715 13.071H-22.64l84.518-146.389-84.414-146.21 66.875-.127 7.547 13.071-51.783.127 69.322 120.068.113-.196.216.374 25.73-44.858 7.547 13.071-25.749 44.826z" style="fill:#000;fill-opacity:1;fill-rule:nonzero;stroke:none" transform="matrix(1.33333 0 0 -1.33333 1148.93 520.035)"/><path d="M4.664 0v-36.305h2.508v34.032h14.555V0Zm36.003.633q-7.689.001-12.258-5.11-4.57-5.106-4.57-13.289-.001-8.692 4.687-13.922 4.686-5.225 12.82-5.226 7.335 0 11.883 5.027 4.546 5.028 4.547 13.184-.001 9-4.652 14.168Q48.471.633 40.667.633m.258-35.25c-4.219 0-7.694 1.53-10.418 4.582q-4.091 4.583-4.09 11.988 0 7.503 3.867 11.942 3.868 4.44 10.336 4.44 6.724 0 10.652-4.394 3.926-4.393 3.926-12.246 0-7.685-3.832-12-3.832-4.311-10.441-4.312M76.699 0h-1.875L61.56-36.305h2.812l10.5 29.25q.656 1.806.938 3.446h.117c.155-.873.498-2.04 1.031-3.493l11.156-29.203h2.696zm19.79 0v-36.305h16.946v2.32H98.997v14.555h13.406v2.274H98.997v14.883h15.281V0Zm40.128 0v-36.305h2.508v34.032h14.555V0Zm36.024.633q-7.689.001-12.258-5.11-4.57-5.106-4.57-13.289-.001-8.692 4.687-13.922 4.685-5.225 12.82-5.226 7.334 0 11.883 5.027 4.546 5.028 4.547 13.184-.002 9-4.652 14.168Q180.444.633 172.64.633m.257-35.25c-4.218 0-7.693 1.53-10.418 4.582q-4.09 4.583-4.09 11.988 0 7.503 3.868 11.942 3.867 4.44 10.336 4.44 6.723 0 10.652-4.394 3.925-4.393 3.926-12.246 0-7.685-3.832-12-3.832-4.311-10.442-4.312M222.832 0l-21.61-29.344a15 15 0 0 1-1.171-1.758l-.328-.515h-.118q.07.659.07 1.594V0h-2.507v-36.305h1.922l21.469 29.086a35 35 0 0 1 1.546 2.344h.118a47 47 0 0 1-.118-3.047v-28.383h2.485V0Zm11.104 0v-36.305h16.945v2.32h-14.438v14.555h13.407v2.274h-13.407v14.883h15.282V0Zm25.921 0v-36.305h2.508v34.032h14.555V0Zm29.218-13.805V0h-2.484v-13.734l-11.11-22.57h2.813l8.437 17.507q.467.892 1.149 2.672h.094q.373-.937 1.242-2.625l8.86-17.555h2.718zm41.56-20.18V0h-2.484v-33.984h-10.476v-2.32h23.437v2.32zM347.289 0v-36.305h2.508V0Zm43.26 0v-25.758q0-.936.281-5.344h-.094q-.8 2.04-1.312 3.164L376.509 0h-.82l-12.961-27.797q-.632-1.335-1.196-3.422h-.117q.186 2.439.188 4.852V0h-2.508v-36.305h2.32l13.547 29.25q.114.237.281.68.14.422.328.867.256.659.516 1.453h.164l.281-.797q.023-.114.867-2.414l13.336-29.039h2.227V0Zm11.701 0v-36.305h16.945v2.32h-14.437v14.555h13.406v2.274h-13.406v14.883h15.281V0Zm0 0" aria-label="LOVE LONELY TIME" style="fill:#000;fill-opacity:1;fill-rule:nonzero;stroke:none" transform="translate(997.64 1026.746)scale(1.33333)"/></svg>